nColumns=19
nRows=109
DataType=double
version=3
OpenSimVersion=4.1
endheader
time	ground_force_calcn_r_vx	ground_force_calcn_r_vy	ground_force_calcn_r_vz	ground_force_calcn_r_px	ground_force_calcn_r_py	ground_force_calcn_r_pz	ground_force_calcn_r_mx	ground_force_calcn_r_my	ground_force_calcn_r_mz	ground_force_calcn_l_vx	ground_force_calcn_l_vy	ground_force_calcn_l_vz	ground_force_calcn_l_px	ground_force_calcn_l_py	ground_force_calcn_l_pz	ground_force_calcn_l_mx	ground_force_calcn_l_my	ground_force_calcn_l_mz
0	-26.916	227.848	-4.4611	0.165516	0	-0.141975	0.0295437	-0.250092	0.00489662	0	0	0	0	0	0	0	0	0
0.01	-32.6462	251.617	-6.28358	0.171013	0	-0.141567	0.0262032	-0.201958	0.00504347	0	0	0	0	0	0	0	0	0
0.02	-39.1561	278.584	-8.18948	0.17732	0	-0.14118	0.0174652	-0.12426	0.00365284	0	0	0	0	0	0	0	0	0
0.03	-46.2585	308.23	-10.1035	0.183307	0	-0.140894	0.00256434	-0.0170868	0.000560089	0	0	0	0	0	0	0	0	0
0.04	-53.6804	339.813	-11.9632	0.188868	0	-0.140696	-0.0183446	0.116127	-0.00408828	0	0	0	0	0	0	0	0	0
0.05	-61.1028	372.469	-13.7399	0.193953	0	-0.140562	-0.0440267	0.268377	-0.0099001	0	0	0	0	0	0	0	0	0
0.06	-68.2209	405.378	-15.4459	0.198567	0	-0.140459	-0.0724403	0.43045	-0.0164012	0	0	0	0	0	0	0	0	0
0.07	-74.7779	437.839	-17.1036	0.202746	0	-0.14036	-0.101399	0.593711	-0.0231925	0	0	0	0	0	0	0	0	0
0.08	-80.5633	469.264	-18.7253	0.206541	0	-0.140248	-0.129015	0.751484	-0.0299868	0	0	0	0	0	0	0	0	0
0.09	-85.421	499.145	-20.3161	0.210004	0	-0.140109	-0.153735	0.898328	-0.0365636	0	0	0	0	0	0	0	0	0
0.1	-89.2501	527.02	-21.8697	0.213195	0	-0.139935	-0.174467	1.03023	-0.0427512	0	0	0	0	0	0	0	0	0
0.11	-92.0035	552.466	-23.3639	0.216175	0	-0.139721	-0.190611	1.14459	-0.0484047	0	0	0	0	0	0	0	0	0
0.12	-93.6829	575.111	-24.7669	0.218996	0	-0.139467	-0.201922	1.23958	-0.0533819	0	0	0	0	0	0	0	0	0
0.13	-94.327	594.656	-26.0411	0.221711	0	-0.139176	-0.208401	1.3138	-0.0575337	0	0	0	0	0	0	0	0	0
0.14	-93.9985	610.878	-27.1463	0.224357	0	-0.138851	-0.210189	1.36598	-0.0607015	0	0	0	0	0	0	0	0	0
0.15	-92.7748	623.641	-28.0436	0.226966	0	-0.138497	-0.207506	1.39488	-0.0627242	0	0	0	0	0	0	0	0	0
0.16	-90.7439	632.898	-28.6995	0.229556	0	-0.138119	-0.200648	1.39943	-0.0634589	0	0	0	0	0	0	0	0	0
0.17	-88.004	638.696	-29.0905	0.232146	0	-0.137721	-0.190014	1.37904	-0.0628108	0	0	0	0	0	0	0	0	0
0.18	-84.6612	641.188	-29.2092	0.234748	0	-0.13731	-0.17612	1.33386	-0.0607637	0	0	0	0	0	0	0	0	0
0.19	-80.8278	640.616	-29.0667	0.237375	0	-0.136887	-0.159602	1.26496	-0.057395	0	0	0	0	0	0	0	0	0
0.2	-76.6177	637.296	-28.6893	0.240036	0	-0.136454	-0.141168	1.17421	-0.0528598	0	0	0	0	0	0	0	0	0
0.21	-72.1401	631.594	-28.1126	0.242737	0	-0.136015	-0.121539	1.06408	-0.047363	0	0	0	0	0	0	0	0	0
0.22	-67.4946	623.909	-27.3775	0.24548	0	-0.135571	-0.101383	0.937172	-0.0411237	0	0	0	0	0	0	0	0	0
0.23	-62.7669	614.652	-26.5246	0.248263	0	-0.135125	-0.0812641	0.795789	-0.0343413	0	0	0	0	0	0	0	0	0
0.24	-58.0285	604.242	-25.59	0.25108	0	-0.13468	-0.0616228	0.641668	-0.0271751	0	0	0	0	0	0	0	0	0
0.25	-53.3377	593.088	-24.6037	0.253919	0	-0.134239	-0.0428024	0.475941	-0.019744	0	0	0	0	0	0	0	0	0
0.26	-48.74	581.591	-23.5886	0.256765	0	-0.133809	-0.025083	0.299304	-0.0121394	0	0	0	0	0	0	0	0	0
0.27	-44.2706	570.132	-22.5623	0.259604	0	-0.133397	-0.00871136	0.112188	-0.0044397	0	0	0	0	0	0	0	0	0
0.28	-39.9554	559.067	-21.5398	0.262416	0	-0.13301	0.00607029	-0.0849371	0.00327247	0	0	0	0	0	0	0	0	0
0.29	-35.8124	548.716	-20.537	0.265183	0	-0.132652	0.0190119	-0.2913	0.0109026	0	0	0	0	0	0	0	0	0
0.3	-31.8528	539.359	-19.5735	0.267888	0	-0.132332	0.0298622	-0.505652	0.0183503	0	0	0	0	0	0	0	0	0
0.31	-28.0808	531.232	-18.6737	0.270517	0	-0.132049	0.0383856	-0.726176	0.0255263	0	0	0	0	0	0	0	0	0
0.32	-24.4935	524.522	-17.8653	0.273057	0	-0.131809	0.0443888	-0.950577	0.0323767	0	0	0	0	0	0	0	0	0
0.33	-21.0796	519.373	-17.1785	0.275497	0	-0.131607	0.0477438	-1.17634	0.038908	0	0	0	0	0	0	0	0	0
0.34	-17.8202	515.881	-16.6444	0.277833	0	-0.131441	0.048389	-1.40083	0.0451963	0	0	0	0	0	0	0	0	0
0.35	-14.689	514.1	-16.2937	0.280061	0	-0.131304	0.0463221	-1.62123	0.0513826	0	0	0	0	0	0	0	0	0
0.36	-11.6544	514.045	-16.1547	0.282181	0	-0.13119	0.0415966	-1.83471	0.0576589	0	0	0	0	0	0	0	0	0
0.37	-8.68202	515.694	-16.252	0.2842	0	-0.131091	0.0343157	-2.03828	0.0642362	0	0	0	0	0	0	0	0	0
0.38	-5.7358	518.989	-16.6041	0.286129	0	-0.130999	0.0246329	-2.22885	0.0713079	0	0	0	0	0	0	0	0	0
0.39	-2.77931	523.845	-17.2219	0.287984	0	-0.130909	0.012751	-2.40332	0.0790115	0	0	0	0	0	0	0	0	0
0.4	0.223097	530.145	-18.1072	0.289782	0	-0.130814	-0.00107676	-2.5587	0.087393	0	0	0	0	0	0	0	0	0
0.41	3.30516	537.737	-19.2522	0.291546	0	-0.130711	-0.0165459	-2.69195	0.0963779	0	0	0	0	0	0	0	0	0
0.42	6.49712	546.438	-20.6388	0.293297	0	-0.130597	-0.0332917	-2.79999	0.105755	0	0	0	0	0	0	0	0	0
0.43	9.82352	556.032	-22.2386	0.295057	0	-0.130472	-0.0508755	-2.87966	0.115173	0	0	0	0	0	0	0	0	0
0.44	13.3021	566.276	-24.0126	0.296848	0	-0.130339	-0.0687803	-2.92801	0.12416	0	0	0	0	0	0	0	0	0
0.45	16.9439	576.907	-25.9108	0.298686	0	-0.130201	-0.0864273	-2.94268	0.132166	0	0	0	0	0	0	0	0	0
0.46	20.7539	587.643	-27.8736	0.300588	0	-0.130064	-0.103205	-2.92223	0.13861	0	0	0	0	0	0	0	0	0
0.47	24.7321	598.183	-29.8336	0.302563	0	-0.129934	-0.118511	-2.86636	0.142956	0	0	0	0	0	0	0	0	0
0.48	28.8745	608.209	-31.7172	0.304616	0	-0.129816	-0.131791	-2.77602	0.144766	0	0	0	0	0	0	0	0	0
0.49	33.175	617.378	-33.4472	0.306745	0	-0.129721	-0.142585	-2.65348	0.143755	0	0	0	0	0	0	0	0	0
0.5	37.6242	625.328	-34.9472	0.308944	0	-0.129652	-0.150556	-2.5023	0.139844	0	0	0	0	0	0	0	0	0
0.51	42.2066	631.673	-36.1439	0.311203	0	-0.129614	-0.155501	-2.32725	0.133164	0	0	0	0	0	0	0	0	0
0.52	46.8962	636.004	-36.9694	0.313507	0	-0.129614	-0.157372	-2.13427	0.12406	0	0	0	0	0	0	0	0	0
0.53	51.6514	637.898	-37.3643	0.315844	0	-0.129655	-0.156305	-1.93038	0.11307	7.11556	25.4287	-2.57222	0.686439	0	-0.227574	0.194487	0.695033	-0.0703055
0.54	56.4118	636.93	-37.2802	0.3182	0	-0.129739	-0.152619	-1.72318	0.10086	7.36065	38.6913	-2.76204	0.714319	0	-0.242604	0.142141	0.747163	-0.0533375
0.55	61.0954	632.687	-36.6846	0.320565	0	-0.129869	-0.146791	-1.52013	0.0881402	7.02662	54.5022	-2.96415	0.731913	0	-0.250452	0.101688	0.788747	-0.0428968
0.56	65.5965	624.793	-35.5644	0.322932	0	-0.130044	-0.139391	-1.32767	0.0755736	5.89555	72.7652	-3.16704	0.744491	0	-0.255025	0.0669556	0.826392	-0.035968
0.57	69.7867	612.93	-33.9297	0.325298	0	-0.130264	-0.131041	-1.15092	0.0637107	3.78806	93.2889	-3.3482	0.754373	0	-0.257905	0.0349949	0.861821	-0.0309314
0.58	73.5214	596.871	-31.8135	0.327663	0	-0.130526	-0.122387	-0.993575	0.0529581	0.664744	115.941	-3.46639	0.762734	0	-0.25986	0.00513944	0.89639	-0.0268002
0.59	76.6462	576.501	-29.272	0.330031	0	-0.130825	-0.114051	-0.857842	0.0435572	-3.41586	140.676	-3.45605	0.770193	0	-0.261308	-0.0226148	0.93135	-0.0228809
0.6	79.0037	551.829	-26.3823	0.332402	0	-0.131155	-0.106519	-0.744015	0.0355705	-8.36779	167.456	-3.23088	0.777075	0	-0.262485	-0.0483514	0.967608	-0.0186689
0.61	80.4409	522.998	-23.2401	0.334787	0	-0.131509	-0.10003	-0.650362	0.0288998	-14.095	196.18	-2.6992	0.78355	0	-0.263526	-0.0722635	1.00579	-0.0138385
0.62	80.8202	490.29	-19.9525	0.33719	0	-0.131878	-0.0945815	-0.573772	0.0233498	-20.4843	226.664	-1.77509	0.789703	0	-0.264508	-0.0945313	1.04601	-0.00819169
0.63	80.0302	454.132	-16.6294	0.339625	0	-0.132254	-0.0899873	-0.510634	0.0186984	-27.393	258.64	-0.391591	0.795565	0	-0.265467	-0.115123	1.08698	-0.00164572
0.64	77.9961	415.099	-13.381	0.342109	0	-0.132626	-0.0859573	-0.457468	0.0147469	-34.6423	291.743	1.47955	0.801136	0	-0.266415	-0.133622	1.12531	0.00570694
0.65	74.6945	373.905	-10.3143	0.344662	0	-0.132987	-0.0821299	-0.411125	0.0113411	-42.0184	325.513	3.81767	0.806399	0	-0.267348	-0.149194	1.1558	0.0135554
0.66	70.1698	331.391	-7.52552	0.347314	0	-0.133325	-0.0781421	-0.369042	0.00838053	-49.2835	359.459	6.5597	0.811337	0	-0.268257	-0.160824	1.173	0.0214059
0.67	64.5438	288.486	-5.09021	0.350104	0	-0.133633	-0.0737463	-0.329617	0.00581595	-56.2147	393.151	9.615	0.815942	0	-0.26913	-0.167738	1.17311	0.02869
0.68	58.0135	246.173	-3.05623	0.353089	0	-0.133906	-0.0688131	-0.291999	0.00362517	-62.6278	426.27	12.8674	0.820216	0	-0.269957	-0.169536	1.15393	0.0348326
0.69	50.8477	205.424	-1.4398	0.356347	0	-0.134132	-0.0633234	-0.255826	0.00179307	-68.3665	458.568	16.176	0.824165	0	-0.270729	-0.166151	1.11446	0.0393125
0.7	43.3665	167.135	-0.225684	0.360001	0	-0.134306	-0.0573601	-0.221066	0.000298508	-73.2953	489.781	19.3897	0.827798	0	-0.271431	-0.157907	1.05518	0.041773
0.71	35.9037	132.055	0.628759	0.364252	0	-0.134411	-0.0510664	-0.187824	-0.000894294	-77.3014	519.57	22.3709	0.831128	0	-0.27206	-0.145568	0.978417	0.0421273
0.72	28.7669	100.741	1.18487	0.369451	0	-0.134424	-0.0447413	-0.156683	-0.00184283	-80.3027	547.502	25.0132	0.834175	0	-0.27262	-0.13029	0.888313	0.0405834
0.73	22.2057	73.5299	1.50984	0.37627	0	-0.134299	-0.0388864	-0.128765	-0.00264403	-82.2564	573.086	27.2482	0.836963	0	-0.273116	-0.11345	0.790415	0.0375815
0.74	16.3933	50.5354	1.66437	0.386155	0	-0.13394	-0.0343799	-0.105982	-0.0034905	-83.1615	595.814	29.0463	0.839532	0	-0.273563	-0.0964576	0.691074	0.0336903
0.75	11.4204	31.6753	1.69643	0.402819	0	-0.133139	-0.0332644	-0.092261	-0.0049412	-83.056	615.223	30.4105	0.841919	0	-0.273974	-0.0805534	0.596685	0.0294942
0.76	0	0	0	0	0	0	0	0	0	-82.0115	630.932	31.366	0.844169	0	-0.274365	-0.066681	0.512992	0.0255028
0.77	0	0	0	0	0	0	0	0	0	-80.1241	642.676	31.9475	0.846328	0	-0.274746	-0.0554409	0.444691	0.0221057
0.78	0	0	0	0	0	0	0	0	0	-77.507	650.332	32.1889	0.848437	0	-0.275129	-0.0470999	0.395197	0.0195607
0.79	0	0	0	0	0	0	0	0	0	-74.2816	653.942	32.1187	0.850532	0	-0.27552	-0.0416518	0.366683	0.0180098
0.8	0	0	0	0	0	0	0	0	0	-70.5712	653.708	31.7598	0.852645	0	-0.275921	-0.0388723	0.360079	0.0174941
0.81	0	0	0	0	0	0	0	0	0	-66.4944	649.985	31.1333	0.854802	0	-0.276332	-0.0384001	0.375361	0.0179792
0.82	0	0	0	0	0	0	0	0	0	-62.1608	643.234	30.2619	0.857022	0	-0.276753	-0.0398007	0.411854	0.0193763
0.83	0	0	0	0	0	0	0	0	0	-57.6678	633.99	29.1737	0.85932	0	-0.277183	-0.0426123	0.468473	0.0215573
0.84	0	0	0	0	0	0	0	0	0	-53.1002	622.819	27.904	0.861699	0	-0.277622	-0.0463743	0.54393	0.0243695
0.85	0	0	0	0	0	0	0	0	0	-48.5296	610.296	26.4944	0.864164	0	-0.278068	-0.050644	0.636886	0.0276488
0.86	0	0	0	0	0	0	0	0	0	-44.0151	596.985	24.991	0.866709	0	-0.278522	-0.0550032	0.746018	0.0312298
0.87	0	0	0	0	0	0	0	0	0	-39.6032	583.424	23.4401	0.869327	0	-0.278982	-0.0590552	0.869987	0.0349532
0.88	0	0	0	0	0	0	0	0	0	-35.3289	570.116	21.8863	0.872004	0	-0.279446	-0.0624249	1.00737	0.0386723
0.89	0	0	0	0	0	0	0	0	0	-31.2163	557.511	20.3711	0.874723	0	-0.279914	-0.0647617	1.15662	0.0422621
0.9	0	0	0	0	0	0	0	0	0	-27.2792	546.005	18.9325	0.877462	0	-0.280382	-0.0657471	1.31596	0.0456302
0.91	0	0	0	0	0	0	0	0	0	-23.5217	535.929	17.605	0.8802	0	-0.280846	-0.0651034	1.48335	0.0487272
0.92	0	0	0	0	0	0	0	0	0	-19.9398	527.541	16.4205	0.882917	0	-0.281304	-0.0626084	1.65641	0.0515584
0.93	0	0	0	0	0	0	0	0	0	-16.522	521.026	15.4082	0.885592	0	-0.281752	-0.0581106	1.83254	0.0541933
0.94	0	0	0	0	0	0	0	0	0	-13.2504	516.496	14.595	0.88821	0	-0.28219	-0.0515362	2.00887	0.0567661
0.95	0	0	0	0	0	0	0	0	0	-10.1023	513.997	14.0058	0.890761	0	-0.282617	-0.0428928	2.18235	0.0594665
0.96	0	0	0	0	0	0	0	0	0	-7.05228	513.519	13.6643	0.893243	0	-0.283037	-0.0322712	2.34986	0.0625277
0.97	0	0	0	0	0	0	0	0	0	-4.07278	515.007	13.5923	0.89566	0	-0.283455	-0.0198365	2.50835	0.0662016
0.98	0	0	0	0	0	0	0	0	0	-1.13462	518.367	13.8095	0.898019	0	-0.283875	-0.00581066	2.65467	0.0707214
0.99	0	0	0	0	0	0	0	0	0	1.79302	523.478	14.3314	0.900338	0	-0.284304	0.00954131	2.78562	0.0762628
1	0	0	0	0	0	0	0	0	0	4.7417	530.196	15.1673	0.902629	0	-0.284746	0.0259178	2.89802	0.0829037
1.01	0	0	0	0	0	0	0	0	0	7.74205	538.352	16.3168	0.90491	0	-0.285206	0.0429815	2.98877	0.0905859
1.02	0	0	0	0	0	0	0	0	0	10.8213	547.76	17.7663	0.907198	0	-0.285683	0.0603536	3.05501	0.0990875
1.03	0	0	0	0	0	0	0	0	0	14.0014	558.209	19.4877	0.909506	0	-0.286179	0.0776136	3.0943	0.108026
1.04	0	0	0	0	0	0	0	0	0	17.298	569.462	21.4384	0.911843	0	-0.286689	0.0943135	3.10486	0.116888
1.05	0	0	0	0	0	0	0	0	0	20.7204	581.256	23.5628	0.914218	0	-0.28721	0.110005	3.08589	0.125095
1.06	0	0	0	0	0	0	0	0	0	24.2708	593.304	25.7952	0.916636	0	-0.287737	0.124267	3.03772	0.132072
1.07	0	0	0	0	0	0	0	0	0	27.9443	605.293	28.0636	0.919098	0	-0.288262	0.136731	2.96169	0.137315
1.08	0	0	0	0	0	0	0	0	0	31.7308	616.883	30.2923	0.921605	0	-0.288779	0.147117	2.86013	0.140448
